<svg width="47" height="47" viewBox="0 0 47 47" fill="none" xmlns="http://www.w3.org/2000/svg">
<g filter="url(#filter0_d_6_2)">
<path fill-rule="evenodd" clip-rule="evenodd" d="M22.6197 14.2667L28.1343 15.239L28.1303 15.2622L39.9905 17.3534L42.0706 5.55674L24.6957 2.49309L22.6197 14.2667ZM22.3196 2.0741L10.5567 0L7.50475 17.3087L19.2378 19.3776L20.2138 13.8424L20.2436 13.8477L22.3196 2.0741ZM26.7335 23.1837L27.71 17.6456L39.5703 19.7368L36.5138 37.0706L24.6149 34.9725L26.6948 23.1769L26.7335 23.1837ZM22.2387 34.5535L24.3186 22.7579L18.813 21.7871L18.8176 21.761L7.08449 19.6921L5 31.5138L22.2387 34.5535Z" fill="url(#paint0_linear_6_2)"/>
</g>
<defs>
<filter id="filter0_d_6_2" x="0.126768" y="0" width="46.8171" height="46.8171" filterUnits="userSpaceOnUse" color-interpolation-filters="sRGB">
<feFlood flood-opacity="0" result="BackgroundImageFix"/>
<feColorMatrix in="SourceAlpha" type="matrix" values="0 0 0 0 0 0 0 0 0 0 0 0 0 0 0 0 0 0 127 0" result="hardAlpha"/>
<feOffset dy="4.87323"/>
<feGaussianBlur stdDeviation="2.43662"/>
<feComposite in2="hardAlpha" operator="out"/>
<feColorMatrix type="matrix" values="0 0 0 0 0 0 0 0 0 0 0 0 0 0 0 0 0 0 0.25 0"/>
<feBlend mode="normal" in2="BackgroundImageFix" result="effect1_dropShadow_6_2"/>
<feBlend mode="normal" in="SourceGraphic" in2="effect1_dropShadow_6_2" result="shape"/>
</filter>
<linearGradient id="paint0_linear_6_2" x1="28.6729" y1="14.8842" x2="16.794" y2="23.2589" gradientUnits="userSpaceOnUse">
<stop stop-color="#B2E18D"/>
<stop offset="1" stop-color="#8EFF7B"/>
</linearGradient>
</defs>
</svg>
