<svg width="16" height="12" viewBox="0 0 16 12" fill="none" xmlns="http://www.w3.org/2000/svg">
<path d="M3.80188 9.99388V12H2.60991C2.34793 12 2.14163 11.9232 1.99099 11.7697L0.248874 10.054C0.155001 9.94492 0.0884159 9.85146 0.0491199 9.77357C0.0163733 9.68679 0 9.57552 0 9.43978V0H2.15145V9.02253C2.15145 9.09152 2.16783 9.13713 2.20057 9.15939L3.01924 9.9605C3.05199 9.98275 3.09674 9.99388 3.1535 9.99388H3.80188ZM16 5.7847V12H13.8453V6.20195C13.8453 6.13296 13.8289 6.08178 13.7962 6.0484L12.9709 5.27399C12.9491 5.25174 12.9098 5.24061 12.8531 5.24061H11.9689C11.9078 5.24061 11.8663 5.25174 11.8445 5.27399L11.0094 6.0484C10.9767 6.08178 10.9603 6.13296 10.9603 6.20195V6.35216V12H8.80884V6.20195C8.80884 6.13296 8.79138 6.08178 8.75645 6.0484L7.93123 5.27399C7.9094 5.25174 7.87011 5.24061 7.81334 5.24061H6.92264C6.86588 5.24061 6.82658 5.25174 6.80475 5.27399L5.96971 6.0484C5.93696 6.08178 5.92059 6.13296 5.92059 6.20195V12H3.76914V3.27455H5.92059V4.00556L6.42816 3.50487C6.5788 3.35132 6.7851 3.27455 7.04707 3.27455H8.34056C8.59599 3.27455 8.8012 3.35132 8.9562 3.50487L10.1908 4.7032L11.4679 3.50487C11.6294 3.35132 11.8357 3.27455 12.0868 3.27455H13.3868C13.6379 3.27455 13.8409 3.35132 13.9959 3.50487L15.7413 5.1872C15.8352 5.27399 15.9018 5.36189 15.9411 5.4509C15.9804 5.53769 16 5.64896 16 5.7847Z" fill="#8BFF78"/>
</svg>
